{"title":"Jennifer's Body.2009.R5.LINE.AAC.H264-LTT","uid":5147689,"size":1244953557,"categoryP":"video","categoryS":"movies","magnet":"?xt=urn:btih:38efd2273f191d57a3035f29638cace4de79be8c&amp;dn=Jennifer%5C%27s+Body.2009.R5.LINE.AAC.H264-LTT&amp;tr=udp%3A%2F%2Ftracker.openbittorrent.com%3A80&amp;tr=udp%3A%2F%2Fopen.demonii.com%3A1337&amp;tr=udp%3A%2F%2Ftracker.coppersurfer.tk%3A6969&amp;tr=udp%3A%2F%2Fexodus.desync.com%3A6969","seeders":2,"leechers":0,"uploader":"Ltt_Fr1","files":3,"time":1257361813,"description":"Jennifer's Body.2009.R5.AAC.H264-LTT.mp4\n****************************************\n\n&gt; TiTLE......[ Jennifer's Body\n&gt; YEAR.......[ 2009\n&gt; GENRE......[ Comedy | Horror | Thriller\n&gt; RUNTiME....[ 1:38:14\n&gt; iMDB RATE..[ User Rating: 5.6/10 (5,976 votes)\n&gt; iMDB URL...[ http://www.imdb.com/title/tt1131734/\n\n&gt; AUDiO......[ MPEG-4 AAC LC VBR 128 kbit/s 48000Hz 2 chnls\n&gt; LANGUAGE...[ ENGLISH\n&gt; SUBS.......[ None\n&gt; ViDEO......[ 1551 kbps H.264/MPEG-4 AVC 23.976 Fps\n&gt; RESOLUTiON.[ 1120 x 608\n&gt; DAR........[ 1.842 (35:19)\n&gt; SiZE.......[ 1.15 GB (1,178 MB / 1,207,079 KB)\n************************************************\n\nVideo:\n*****\nDuration                         : 1h 38mn\nBit rate mode                    : Variable\nBit rate                         : 1 551 Kbps\nMaximum bit rate                 : 13.2 Mbps\nWidth                            : 1 120 pixels\nHeight                           : 608 pixels\nDisplay aspect ratio             : 16:9\nFrame rate mode                  : Constant\nFrame rate                       : 23.976 fps\nResolution                       : 24 bits\nColorimetry                      : 4:2:0\nScan type                        : Progressive\nBits/(Pixel*Frame)               : 0.095\nStream size                      : 1.06 GiB (92%)\nTagged date                      : UTC 2009-11-02 15:23:32\n\nAudio:\n*****\nFormat                           : AAC\nFormat/Info                      : Advanced Audio Codec\nFormat version                   : Version 4\nFormat profile                   : LC\nDuration                         : 1h 34mn\nBit rate mode                    : Variable\nBit rate                         : 128 Kbps\nMaximum bit rate                 : 214 Kbps\nChannel(s)                       : 2 channels\nChannel positions                : L R\nSampling rate                    : 48.0 KHz\nResolution                       : 16 bits\nStream size                      : 86.4 MiB (7%)\nEncoded date                     : UTC 2009-11-02 15:23:22\n**********************************************************\n\nincluded the sample.\n\nEnjoy.\nLTT\n","torrent":{"xt":"urn:btih:38efd2273f191d57a3035f29638cace4de79be8c","amp;dn":"Jennifer%5C%27s+Body.2009.R5.LINE.AAC.H264-LTT","amp;tr":["udp%3A%2F%2Ftracker.openbittorrent.com%3A80","udp%3A%2F%2Fopen.demonii.com%3A1337","udp%3A%2F%2Ftracker.coppersurfer.tk%3A6969","udp%3A%2F%2Fexodus.desync.com%3A6969"],"infoHash":"38efd2273f191d57a3035f29638cace4de79be8c","infoHashBuffer":{"type":"Buffer","data":[56,239,210,39,63,25,29,87,163,3,95,41,99,140,172,228,222,121,190,140]},"announce":[],"urlList":[]}}